<?xml version="1.0" encoding="utf-8"?>
<!-- Svg Vector Icons : http://www.onlinewebfonts.com/icon -->
<!DOCTYPE svg PUBLIC "-//W3C//DTD SVG 1.1//EN" "http://www.w3.org/Graphics/SVG/1.1/DTD/svg11.dtd">
<svg version="1.1" xmlns="http://www.w3.org/2000/svg" xmlns:xlink="http://www.w3.org/1999/xlink" x="0px" y="0px" viewBox="0 0 1000 1000" enable-background="new 0 0 1000 1000" xml:space="preserve">
<metadata> Svg Vector Icons : http://www.onlinewebfonts.com/icon </metadata>
<g><g transform="translate(0.000000,511.000000) scale(0.100000,-0.100000)"><path d="M4477.5,4991.1c-1100.8-118.6-2152.2-624.5-2940.7-1415C609.9,2651.2,100,1420,100,109.7c0-1132.4,407.1-2264.9,1122.5-3120.6C2208.7-4190.8,3637.6-4835,5159.3-4783.7c950.6,31.6,1784.6,300.4,2567.2,826.1c1314.2,879.5,2108.7,2304.4,2170,3891.4c41.5,1126.5-292.5,2193.7-978.3,3122.6c-203.6,276.7-685.8,760.9-958.5,966.4c-658.1,492.1-1361.7,790.5-2189.7,932.8C5485.4,5003,4774,5022.8,4477.5,4991.1z M2028.9,793.5c140.3-41.5,253-144.3,302.4-278.7c65.2-173.9,73.1-166-193.7-166h-233.2l-11.9,59.3c-15.8,71.1-87,120.6-199.6,132.4c-75.1,9.9-92.9,2-152.2-49.4l-67.2-61.3l49.4-49.4c33.6-35.6,100.8-63.2,217.4-92.9c235.2-57.3,450.6-144.3,537.6-215.4c130.4-108.7,173.9-357.7,92.9-527.7c-65.2-134.4-201.6-256.9-320.2-290.5c-326.1-90.9-723.3-35.6-889.3,122.5c-73.1,67.2-128.5,177.9-150.2,290.5c-19.8,104.7-13.8,108.7,254.9,108.7h189.7l27.7-83c37.5-104.7,110.7-158.1,231.2-168c83-9.9,104.7-2,160.1,43.5c71.1,59.3,83,132.4,33.6,201.6c-31.6,43.5-108.7,73.1-377.5,144.3c-314.2,83-462.5,217.4-478.3,434.8c-15.8,209.5,112.6,369.6,357.7,444.7C1526.9,831,1906.3,831,2028.9,793.5z M4032.9,615.6V429.8l-241.1-5.9l-243.1-5.9l-5.9-598.8l-4-598.8l-243.1,5.9l-241.1,5.9l-5.9,598.8l-4,596.9h-247h-247v187.7v187.7h741.1h741.1V615.6z M5351.1,42.5c156.1-413.1,288.5-766.8,294.5-784.6c9.9-33.6-9.9-35.6-243.1-35.6h-254.9L5102-639.3L5058.6-501h-274.7c-245.1,0-274.7-4-282.6-33.6c-5.9-19.8-21.7-83-33.6-138.3l-23.7-104.7H4187c-197.6,0-254.9,5.9-247,25.7c4,11.9,128.5,343.9,276.7,735.2c146.3,391.3,276.7,737.2,288.5,766.8l21.7,55.3l268.8-5.9l270.7-5.9L5351.1,42.5z M6918.3,781.6c122.5-25.7,217.4-104.7,274.7-223.3c108.7-221.3-11.9-521.7-237.1-594.9L6855-70.2l67.2-33.6c110.7-51.4,205.5-177.9,322.1-424.9c59.3-128.5,108.7-235.2,108.7-241.1c0-4-122.5-7.9-270.8-7.9h-272.7l-142.3,282.6c-79.1,156.1-160.1,298.4-181.8,318.2s-69.2,37.5-104.7,37.5l-65.2,4l-5.9-322.1l-4-322.1l-243.1,5.9l-241.1,5.9l-5.9,786.6l-4,784.6h502C6606,803.4,6860.9,793.5,6918.3,781.6z M8874.8,615.6V429.8l-251-5.9l-253-5.9l-5.9-598.8l-4-598.8l-233.2,5.9l-231.3,5.9l-5.9,598.8l-3.9,596.9h-256.9h-256.9v187.7v187.7h751h751V615.6z"/><path d="M4718.6,145.2c-39.5-136.4-73.1-256.9-73.1-268.8c0-13.8,55.3-21.7,156.1-21.7h156.1L4888.6,86c-37.5,126.5-75.1,249-83,268.8C4795.7,380.4,4770,315.2,4718.6,145.2z"/><path d="M6319.4,493.1c-7.9-5.9-13.8-83-13.8-170V165l166,9.9c207.5,9.9,268.8,43.5,268.8,146.2c0,98.8-29.6,142.3-114.6,166C6544.7,508.9,6339.2,514.8,6319.4,493.1z"/></g></g>
</svg>